<?xml version="1.0" encoding="utf-8"?>
<!-- Generator: Adobe Illustrator 17.0.0, SVG Export Plug-In . SVG Version: 6.00 Build 0)  -->
<!DOCTYPE svg PUBLIC "-//W3C//DTD SVG 1.1//EN" "http://www.w3.org/Graphics/SVG/1.1/DTD/svg11.dtd">
<svg version="1.1" id="Layer_1" xmlns="http://www.w3.org/2000/svg" xmlns:xlink="http://www.w3.org/1999/xlink" x="0px" y="0px"
	 width="176px" height="176px" viewBox="0 0 176 176" enable-background="new 0 0 595.28 176" xml:space="preserve">

<linearGradient id="SVGID_1_" gradientUnits="userSpaceOnUse" x1="27.9494" y1="172.2112" x2="119.0041" y2="14.4998">
	<stop  offset="0" style="stop-color:#0400DB"/>
	<stop  offset="1" style="stop-color:#01F8FF"/>
</linearGradient>
<path fill-rule="evenodd" clip-rule="evenodd" fill="url(#SVGID_1_)" d="M24.848,9.789h64.883c21.79,0,41.595,8.909,55.948,23.263
	C160.033,47.406,168.942,67.21,168.942,89c0,21.789-8.909,41.595-23.263,55.948c-14.354,14.354-34.159,23.263-55.948,23.263H24.848
	c-3.947,0-7.531-1.61-10.124-4.204c-2.594-2.593-4.204-6.177-4.204-10.124V24.117c0-3.947,1.61-7.531,4.204-10.124
	S20.901,9.789,24.848,9.789L24.848,9.789z M79.237,23.338l0.02-0.031h-5.609c-8.897-0.04-17.939-0.032-27.056,0H24.848
	c-0.215,0-0.417,0.093-0.567,0.243c-0.15,0.15-0.243,0.352-0.243,0.568v129.766c0,0.215,0.093,0.417,0.243,0.567
	c0.15,0.15,0.352,0.243,0.567,0.243h56.729v-45.428H36.691H25.086l69.771-85.754v45.223h44.887h12.298l-1.483,2.322l0.927-2.29
	l-69.906,85.92c15.548,0.644,25.618-1.085,37.998-7.09l0.066-0.162c6.104-3.148,11.659-7.226,16.477-12.044
	c11.91-11.91,19.303-28.332,19.303-46.391s-7.392-34.481-19.303-46.391c-10.773-10.773-25.237-17.849-41.265-19.102v0.002
	C89.716,23.43,84.505,23.375,79.237,23.338L79.237,23.338z M24.99,109.266h-0.598l0.933-1.462L24.99,109.266L24.99,109.266z"/>
</svg>
